<?xml version="1.0" standalone="no"?>
<!DOCTYPE svg PUBLIC "-//W3C//DTD SVG 20010904//EN"
 "http://www.w3.org/TR/2001/REC-SVG-20010904/DTD/svg10.dtd">
<svg version="1.0" xmlns="http://www.w3.org/2000/svg"
 width="1500.000000pt" height="1500.000000pt" viewBox="0 0 1500.000000 1500.000000"
 preserveAspectRatio="xMidYMid meet">
<metadata>
Created by potrace 1.14, written by Peter Selinger 2001-2017
</metadata>
<g transform="translate(0.000000,1500.000000) scale(0.100000,-0.100000)"
fill="#000000" stroke="none">
<path d="M0 7500 l0 -7500 7500 0 7500 0 0 7500 0 7500 -7500 0 -7500 0 0
-7500z m2128 3644 c4 -27 -26 -40 -46 -20 -13 13 -13 18 -2 31 18 21 44 15 48
-11z m5462 -1254 c179 -11 480 -29 670 -40 189 -11 353 -23 364 -26 23 -8 34
2 -214 -189 -100 -77 -266 -205 -370 -285 -103 -80 -269 -208 -369 -285 -100
-77 -191 -147 -201 -155 -10 -8 -88 -69 -173 -134 l-155 -119 -6 -131 c-3 -72
-11 -369 -16 -661 -12 -665 -32 -1278 -40 -1268 -4 5 -24 55 -45 113 -21 58
-44 119 -51 135 -7 17 -33 84 -58 150 -24 66 -72 194 -105 285 -34 91 -66 174
-71 185 -5 11 -27 67 -48 125 -106 284 -128 340 -135 340 -4 0 -141 -90 -304
-200 -164 -110 -299 -197 -301 -192 -1 5 11 45 28 88 35 90 135 362 185 504
37 104 99 268 119 315 7 17 26 62 42 100 59 144 133 281 436 809 171 297 316
547 322 555 8 10 29 12 91 7 44 -3 226 -15 405 -26z m1300 -924 c0 -9 -60
-172 -70 -188 -5 -10 -10 -22 -10 -28 0 -15 -207 -567 -236 -630 -65 -140
-171 -277 -384 -495 -238 -245 -340 -357 -345 -380 -2 -11 -8 -182 -14 -380
-7 -264 -14 -375 -25 -415 -16 -60 -44 -163 -75 -280 -164 -620 -335 -1247
-342 -1255 -5 -5 -9 25 -9 75 -1 47 -5 198 -10 335 -5 138 -19 522 -30 855
-38 1147 -49 1486 -60 1735 -5 138 -10 302 -10 366 l0 117 63 22 c34 12 78 28
97 35 19 7 96 35 170 60 74 26 149 54 167 61 17 8 35 14 40 14 7 0 324 112
368 131 11 4 65 24 120 43 176 61 408 143 490 174 78 29 105 37 105 28z m630
-1106 c0 -13 -7 -20 -20 -20 -19 0 -27 20 -13 33 13 14 33 6 33 -13z m-1354
-2753 c2 -1 -27 -81 -64 -176 l-67 -174 -7 169 c-4 93 -5 175 -2 183 3 11 19
12 71 8 36 -4 67 -8 69 -10z m897 -8 c114 -14 238 -45 248 -61 5 -7 36 -74 69
-149 l60 -136 -10 -69 c-15 -104 -13 -186 6 -212 14 -21 14 -26 -5 -66 -17
-35 -19 -49 -11 -70 14 -39 12 -135 -5 -261 -11 -79 -13 -122 -6 -161 8 -44 7
-58 -9 -89 -11 -21 -25 -62 -31 -91 -14 -60 -26 -72 -108 -99 -30 -10 -65 -28
-77 -40 l-22 -22 60 -149 c32 -82 73 -166 89 -186 21 -27 29 -48 29 -77 0 -40
17 -92 83 -251 19 -47 38 -102 41 -122 6 -35 5 -38 -17 -38 -13 0 -116 -5
-228 -10 -112 -6 -224 -7 -249 -3 -45 8 -45 9 -48 53 -2 27 -11 53 -22 65 -26
27 -53 94 -46 112 4 8 -5 28 -18 44 -17 20 -32 61 -47 131 -13 57 -33 116 -46
135 -13 19 -23 43 -23 54 0 32 -22 109 -30 109 -5 0 -28 -9 -53 -19 l-44 -19
-6 -114 c-4 -62 -9 -185 -12 -273 -8 -228 -6 -220 -62 -236 -50 -14 -74 -14
-300 -8 l-151 4 -7 30 c-3 16 -9 166 -13 332 -4 166 -11 305 -14 309 -4 4 0
20 8 36 13 26 14 45 5 132 -6 55 -12 280 -12 499 l-1 397 209 298 208 297 85
6 c110 9 428 1 533 -12z m1932 -19 c77 -6 176 -16 219 -24 90 -16 108 -31 165
-137 54 -100 57 -126 56 -589 l0 -425 -27 -94 c-16 -54 -37 -104 -50 -119 -27
-28 -86 -60 -195 -103 -43 -17 -103 -43 -133 -59 -30 -15 -75 -31 -100 -34
-25 -3 -112 -27 -194 -53 l-149 -48 9 -160 c11 -191 11 -286 0 -378 l-8 -68
-87 6 c-68 6 -94 4 -124 -9 -34 -14 -45 -14 -100 -1 -71 17 -138 19 -183 6
l-30 -9 -1 57 c0 31 0 101 0 156 0 55 -1 332 -3 615 -7 836 -1 1463 13 1472
15 9 84 9 154 -1 31 -4 65 -3 85 3 40 13 478 10 683 -4z m-5155 -2901 c0 -6
-7 -42 -17 -80 l-16 -69 -103 0 -102 0 -13 -50 c-11 -45 -16 -50 -40 -50 l-27
0 23 88 c12 48 28 106 34 130 l12 42 124 0 c85 0 125 -4 125 -11z m310 4 c0
-5 -12 -46 -25 -92 -14 -47 -25 -89 -25 -93 0 -4 32 -8 70 -8 66 0 71 2 80 25
9 24 43 35 54 17 3 -5 -1 -28 -8 -53 l-13 -44 -127 -3 c-69 -1 -126 1 -126 4
0 11 61 238 67 247 2 4 15 7 29 7 13 0 24 -3 24 -7z m617 -83 c6 -47 15 -104
18 -127 l6 -43 -65 0 c-40 0 -66 4 -66 11 0 23 22 49 41 49 18 0 19 4 13 53
-4 28 -7 53 -8 54 -1 1 -26 -36 -56 -82 -47 -72 -59 -85 -82 -85 -16 0 -28 3
-28 6 0 4 37 63 82 131 72 111 84 124 107 121 25 -3 27 -8 38 -88z m425 46
l21 -45 45 45 c33 32 53 44 75 44 35 0 33 -3 -54 -95 -42 -44 -61 -73 -71
-110 -12 -43 -17 -50 -41 -53 -25 -3 -26 -2 -20 30 3 18 10 40 14 50 6 11 -1
40 -21 88 -17 40 -30 77 -30 81 0 5 14 9 30 9 26 0 33 -6 52 -44z m-2892 -481
c0 -18 -27 -122 -35 -135 -3 -6 -24 -10 -46 -10 l-39 0 25 -40 c32 -51 32 -60
-4 -60 -25 0 -34 8 -58 50 -23 40 -33 50 -55 50 -23 0 -27 -6 -38 -50 -10 -43
-15 -50 -36 -50 -30 0 -30 8 -3 108 11 42 24 94 30 115 l10 37 124 0 c103 0
125 -3 125 -15z m510 8 c0 -5 -3 -18 -6 -30 -6 -21 -12 -23 -107 -25 -88 -3
-102 -5 -105 -20 -3 -16 5 -18 67 -18 61 0 71 -2 71 -17 0 -35 -15 -42 -90
-45 -62 -2 -75 -6 -78 -20 -3 -16 6 -18 92 -18 52 0 97 -3 99 -7 3 -5 1 -18
-4 -30 -8 -22 -13 -23 -134 -23 -69 0 -125 2 -125 5 0 6 59 224 65 243 3 9 38
12 130 12 69 0 125 -3 125 -7z m405 -5 c4 -12 35 -222 35 -240 0 -4 -29 -8
-65 -8 -36 0 -65 2 -65 4 0 24 23 56 40 56 21 0 24 17 11 75 -7 30 -7 29 -61
-52 -47 -70 -59 -83 -82 -83 -16 0 -28 3 -28 7 0 4 37 62 82 130 66 98 87 123
105 123 13 0 26 -6 28 -12z m405 4 c0 -6 -31 -125 -46 -174 -5 -16 3 -18 69
-18 71 0 75 1 81 25 5 19 13 25 32 25 24 0 26 -3 21 -27 -3 -16 -10 -40 -16
-55 l-11 -28 -125 0 c-116 0 -126 1 -121 18 2 9 16 62 31 117 14 55 28 106 30
113 5 13 55 17 55 4z m610 6 c-1 -2 -16 -59 -34 -128 -31 -118 -34 -125 -59
-128 -15 -2 -27 1 -27 5 0 13 49 199 60 228 7 18 17 25 35 25 14 0 25 -1 25
-2z m600 -12 c0 -37 -12 -46 -60 -46 l-49 0 -15 -52 c-8 -29 -21 -74 -28 -100
-10 -40 -16 -48 -35 -48 -15 0 -23 6 -23 18 1 20 36 158 45 172 4 6 -14 10
-44 10 -52 0 -59 7 -45 44 9 22 254 24 254 2z m337 -23 c8 -21 17 -40 19 -42
3 -3 24 14 48 38 35 34 49 42 74 39 l31 -3 -71 -78 c-53 -59 -73 -89 -82 -125
-11 -41 -16 -47 -40 -50 -26 -3 -28 -1 -22 20 19 66 18 88 -8 153 -14 36 -26
70 -26 75 0 6 14 10 31 10 25 0 32 -6 46 -37z"/>
<path d="M7748 9605 c-5 -5 -118 -29 -303 -64 l-90 -17 4 -114 c2 -63 6 -134
10 -157 l6 -41 207 199 c125 120 200 199 189 199 -10 0 -20 -2 -23 -5z"/>
<path d="M8195 8411 c-6 -5 -88 -51 -184 -102 l-173 -92 7 -76 c4 -42 10 -94
15 -116 5 -22 14 -93 21 -157 7 -65 15 -118 18 -118 7 1 230 302 248 334 6 12
21 82 32 156 12 74 24 145 27 158 7 24 4 27 -11 13z"/>
<path d="M8660 4643 l-75 -4 0 -107 c0 -59 -4 -170 -9 -248 -6 -104 -6 -158 4
-208 11 -59 10 -69 -5 -92 -21 -33 -14 -39 23 -20 17 9 65 25 109 37 43 12 95
30 116 42 68 38 68 37 63 319 -5 250 -5 252 -28 264 -30 15 -104 21 -198 17z"/>
<path d="M10714 4641 c-12 -5 -25 -14 -29 -20 -9 -16 -36 -13 -57 6 -10 9 -20
14 -23 11 -7 -7 -7 -628 1 -665 4 -18 12 -33 19 -33 7 0 43 20 81 45 44 29 79
45 99 45 32 0 53 16 75 59 8 15 14 94 17 226 5 187 4 205 -15 247 -11 26 -32
54 -46 63 -31 20 -93 28 -122 16z"/>
<path d="M5626 2114 c-3 -9 -6 -18 -6 -20 0 -2 34 -4 75 -4 68 0 75 2 75 20 0
18 -7 20 -69 20 -54 0 -70 -4 -75 -16z"/>
<path d="M4086 1604 c-3 -9 -6 -18 -6 -20 0 -2 33 -4 74 -4 65 0 74 2 79 20 5
19 0 20 -68 20 -57 0 -74 -3 -79 -16z"/>
</g>
</svg>
